<svg xmlns="http://www.w3.org/2000/svg" version="1.1" xmlns:xlink="http://www.w3.org/1999/xlink" xmlns:svgjs="http://svgjs.com/svgjs" width="256" height="256" x="0" y="0" viewBox="0 0 24 24" style="enable-background:new 0 0 512 512" xml:space="preserve"><g><path d="M12,0a12,12,0,1,0,7.092,21.681l-1.184-1.612A10,10,0,1,1,22,12v2a2,2,0,0,1-4,0V12a6.021,6.021,0,1,0-1.48,3.933A3.986,3.986,0,0,0,24,14V12A12.013,12.013,0,0,0,12,0Zm0,16a4,4,0,1,1,4-4A4,4,0,0,1,12,16Z" fill="#ffffff" data-original="#000000"></path></g></svg>