<svg xmlns="http://www.w3.org/2000/svg" version="1.1" xmlns:xlink="http://www.w3.org/1999/xlink" xmlns:svgjs="http://svgjs.com/svgjs" width="256" height="256" x="0" y="0" viewBox="0 0 24 24" style="enable-background:new 0 0 512 512" xml:space="preserve"><g><path d="M23.821,11.181v0C22.943,9.261,19.5,3,12,3S1.057,9.261.179,11.181a1.969,1.969,0,0,0,0,1.64C1.057,14.739,4.5,21,12,21s10.943-6.261,11.821-8.181A1.968,1.968,0,0,0,23.821,11.181ZM12,18a6,6,0,1,1,6-6A6.006,6.006,0,0,1,12,18Z" fill="#ffffff" data-original="#000000"></path><circle cx="12" cy="12" r="4" fill="#ffffff" data-original="#000000"></circle></g></svg>